<svg version="1.1"  xmlns="http://www.w3.org/2000/svg" xmlns:xlink="http://www.w3.org/1999/xlink" x="0px" y="0px"
	 viewBox="0 0 512 512" style="enable-background:new 0 0 512 512;" xml:space="preserve">
<style type="text/css">
	.st0{fill:#41B883;}
	.st1{fill:#35495E;}
</style>
<path class="st0" d="M20.98,318.63c0-20.98-0.33-41.96,0-63.05C21.82,173.79,88.81,108.16,170.6,109
	c23.44,0.24,46.49,6.04,67.26,16.93c13.19,6.86,22.07,7.84,35.76,0.81c100.35-51.9,216.43,18.08,218.04,130.81
	c0.61,42.87-0.33,85.74,0.3,128.62c0.23,14.95,0,24.49-20.18,23.86c-18.76-0.55-18.96-9.15-18.76-23c0.55-40.98,0-82.01,0.25-122.99
	c0.38-48.6-20.18-85.14-64.08-105.92c-42.87-20.18-84.13-13.42-119.46,18.06c-11.83,10.52-17.48,7.57-27.74-1.11
	c-35.1-29.83-75.13-36.67-117.24-17.65s-64.06,53.44-65.42,99.46c-1.16,41.91-0.3,83.9-0.43,125.87c0,13.57,5.04,27.74-19.67,27.39
	c-25.55-0.43-17.63-16.34-18.06-28.67C20.35,360.6,20.98,339.59,20.98,318.63z"/>
<path class="st1" d="M107.2,327.46c0-20.96-0.66-41.94,0.2-62.87c1.36-34.07,26.86-59.67,59.62-61.26
	c32.05-1.46,62.79,22.7,64.64,55.94c2.52,45.57,0.73,91.39,1.16,137.11c0.18,18.23-13.16,11.63-22.24,12.79
	c-10.79,1.36-17.65-0.38-17.45-14.53c0.86-40,0-80.02,0.48-120.02c0.2-17.3-4.04-31.62-23.83-31.7s-23.91,14.7-23.76,31.75
	c0.43,38.11-0.71,76.24,0.43,114.34c0.53,16.59-4.89,20.76-20.91,20.86c-15.48,0-19.44-5.04-18.69-19.52
	C107.98,369.4,107.18,348.42,107.2,327.46z M405.44,327.89c0,20.96-0.98,41.99,0.35,62.85c1.01,15.51-4.56,19.47-19.29,18.91
	c-13.09-0.5-21.16-1.03-20.58-18.06c1.29-38.06,0-76.19,0.55-114.29c0.2-17.65-2.02-34.52-23.96-34.27
	c-21.94,0.25-23.78,17.07-23.55,34.78c0.5,38.08-0.45,76.19,0.48,114.27c0.38,14.2-4.39,18.49-17.91,17.38
	c-11.25-0.93-22.47,2.52-21.92-16.34c1.29-42.87-0.5-85.74,0.73-128.62c0.76-34.1,28.69-61.3,62.79-61.16
	c33.67,0,60.73,26.43,62.21,61.71C406.19,285.95,405.41,306.93,405.44,327.89z"/>
</svg>
